<svg width="285" height="48" viewBox="0 0 285 48" fill="none" xmlns="http://www.w3.org/2000/svg">
<path d="M25.9933 36.4163C28.3043 35.4059 28.0419 35.6639 43.018 19.6794C43.9448 18.6902 44.9262 17.6455 45.8882 16.6238L44.4872 13.8039C37.8654 20.9906 27.29 32.0256 26.3594 32.6972C23.8271 34.5247 20.8127 34.7552 18.0268 33.3342C16.1841 32.3944 14.3235 30.3979 13.4273 28.3991C12.1382 25.5243 12.262 21.6703 13.7354 18.808C15.1261 16.1062 17.6134 14.0847 20.5567 13.2645C21.6519 12.9592 24.7764 12.968 25.8993 13.2794C28.0281 13.8697 29.2982 14.6189 30.8587 16.2047C31.5009 16.8575 32.1351 17.4264 32.2677 17.4689C32.8769 17.6646 33.2271 17.3651 36.8812 13.5204C38.8468 11.4524 40.5794 9.59001 40.7316 9.38156C41.235 8.69136 41.0914 8.22588 40.0229 7.0802C38.4118 5.35285 36.1592 3.72636 33.6173 2.45426C31.8038 1.54678 31.0312 1.24374 29.4179 0.806852C27.0311 0.16081 25.1316 -0.0636814 22.7195 0.0150986C17.6359 0.181257 13.0612 1.88374 8.89492 5.1602C7.75976 6.05281 5.55034 8.33905 4.67254 9.52912C2.25653 12.8044 0.559309 17.1461 0.0995001 21.2285C-0.100417 23.0021 0.0147067 26.6662 0.321705 28.3018C1.20777 33.023 3.31471 37.1121 6.59703 40.4811C10.5614 44.55 15.6863 47.2036 20.8614 47.8673C22.4465 48.0704 25.7364 48.0349 27.2206 47.7981C29.9285 47.3665 31.9435 46.7288 34.4799 45.5007C38.7715 43.4226 42.7889 39.5494 45.1823 35.1824C46.2235 33.283 47.2335 30.3045 47.6723 27.8405C47.9667 26.1873 48.103 23.2011 47.9109 22.6122C47.7296 22.0568 47.1875 21.5966 46.7153 21.5971C46.0312 21.5978 45.6486 21.9283 42.9486 24.8501C38.9337 29.1953 31.5846 36.9406 30.2653 38.2176C27.3169 41.0716 24.254 42.5056 20.312 42.8793C16.023 43.2853 12.3362 41.8961 9.08473 38.6477C6.31967 35.8858 4.53581 32.8038 3.61964 29.2069C2.80688 26.0144 2.75656 23.0797 3.45374 19.5112C4.20262 15.6779 6.62184 11.2774 9.42114 8.6565C15.2054 3.24066 23.0348 1.60511 30.3019 4.29479C32.6103 5.14928 35.2683 6.75764 36.8534 8.25888C37.0193 8.41644 37.1857 8.57377 37.3518 8.73133L36.4517 9.67367C33.9486 12.2946 32.7852 13.463 32.6781 13.463C32.6131 13.463 32.2505 13.2102 31.8723 12.9011C28.6028 10.2302 23.7324 9.22585 19.6743 10.3859C16.9598 11.1621 14.0999 13.0893 12.4704 15.241C9.68034 18.9249 8.78922 23.9735 10.1684 28.2823C11.2746 31.7374 14.2042 35.0501 17.31 36.3578C18.9397 37.0438 19.7529 37.203 21.6482 37.2069C23.6214 37.2113 24.5695 37.0389 25.9933 36.4163Z" fill="#4EE2AA"/>
<path d="M65.024 35.224C63.4667 35.224 62.1013 34.8827 60.928 34.2C59.7547 33.5173 58.8373 32.568 58.176 31.352C57.5147 30.1147 57.184 28.6853 57.184 27.064C57.184 25.4213 57.5147 23.9813 58.176 22.744C58.8373 21.5067 59.7653 20.536 60.96 19.832C62.1547 19.128 63.5307 18.776 65.088 18.776C66.7733 18.776 68.2667 19.192 69.568 20.024C70.8907 20.856 71.8187 21.976 72.352 23.384L68.544 24.472C68.288 23.8533 67.8613 23.3627 67.264 23C66.688 22.6373 66.0267 22.456 65.28 22.456C64.5333 22.456 63.872 22.648 63.296 23.032C62.7413 23.416 62.304 23.9493 61.984 24.632C61.6853 25.3147 61.536 26.1147 61.536 27.032C61.536 28.4187 61.8773 29.5173 62.56 30.328C63.2427 31.1387 64.16 31.544 65.312 31.544C66.0373 31.544 66.6987 31.3733 67.296 31.032C67.8933 30.6693 68.3413 30.1787 68.64 29.56L72.416 30.648C71.84 32.0347 70.88 33.144 69.536 33.976C68.2133 34.808 66.7093 35.224 65.024 35.224ZM82.8105 35.224C81.2532 35.224 79.8665 34.8933 78.6505 34.232C77.4345 33.5493 76.4745 32.6 75.7705 31.384C75.0878 30.1467 74.7465 28.696 74.7465 27.032C74.7465 25.3467 75.0985 23.8853 75.8025 22.648C76.5278 21.4107 77.5092 20.4613 78.7465 19.8C79.9838 19.1173 81.3705 18.776 82.9065 18.776C84.4425 18.776 85.8292 19.1173 87.0665 19.8C88.3038 20.4613 89.2852 21.4107 90.0105 22.648C90.7358 23.864 91.0985 25.304 91.0985 26.968C91.0985 28.6533 90.7252 30.1147 89.9785 31.352C89.2532 32.5893 88.2612 33.5493 87.0025 34.232C85.7652 34.8933 84.3678 35.224 82.8105 35.224ZM82.7785 31.544C83.4398 31.544 84.0692 31.384 84.6665 31.064C85.2638 30.7227 85.7545 30.2213 86.1385 29.56C86.5225 28.8773 86.7145 28.0133 86.7145 26.968C86.7145 25.9653 86.5332 25.1333 86.1705 24.472C85.8078 23.7893 85.3278 23.288 84.7305 22.968C84.1545 22.6267 83.5252 22.456 82.8425 22.456C82.1812 22.456 81.5625 22.6267 80.9865 22.968C80.4318 23.288 79.9838 23.7893 79.6425 24.472C79.3225 25.1333 79.1625 25.9867 79.1625 27.032C79.1625 28.0347 79.3225 28.8773 79.6425 29.56C79.9625 30.2213 80.3998 30.7227 80.9545 31.064C81.5092 31.384 82.1172 31.544 82.7785 31.544ZM94.234 19H97.946L98.234 20.632C98.746 20.056 99.3647 19.608 100.09 19.288C100.837 18.9467 101.637 18.776 102.49 18.776C103.749 18.776 104.815 19.0427 105.69 19.576C106.586 20.1093 107.269 20.888 107.738 21.912C108.229 22.9147 108.474 24.1627 108.474 25.656V35H104.346V26.2C104.346 24.9627 104.101 24.0347 103.61 23.416C103.119 22.7973 102.383 22.488 101.402 22.488C100.399 22.488 99.6313 22.808 99.098 23.448C98.586 24.0667 98.33 24.9947 98.33 26.232V35H94.234V19ZM115.276 19L119.084 30.392L122.924 19H127.308L121.356 35H116.78L110.86 19H115.276ZM137.186 35.224C135.586 35.224 134.178 34.872 132.962 34.168C131.746 33.464 130.796 32.4827 130.114 31.224C129.452 29.9653 129.122 28.5147 129.122 26.872C129.122 25.2933 129.452 23.896 130.114 22.68C130.775 21.464 131.692 20.5147 132.866 19.832C134.06 19.128 135.415 18.776 136.93 18.776C138.466 18.776 139.82 19.1067 140.994 19.768C142.167 20.4293 143.074 21.3573 143.714 22.552C144.375 23.7253 144.706 25.1013 144.706 26.68C144.706 26.9147 144.684 27.1813 144.642 27.48C144.62 27.7573 144.588 28.056 144.546 28.376H133.538C133.623 29.0587 133.836 29.6453 134.178 30.136C134.54 30.6053 134.978 30.9787 135.49 31.256C136.023 31.512 136.62 31.64 137.282 31.64C138.071 31.64 138.775 31.48 139.394 31.16C140.034 30.8187 140.492 30.3813 140.77 29.848L144.418 30.936C143.778 32.3013 142.818 33.3573 141.538 34.104C140.279 34.8507 138.828 35.224 137.186 35.224ZM140.226 25.4C140.204 24.8027 140.044 24.2693 139.746 23.8C139.447 23.3093 139.052 22.936 138.562 22.68C138.071 22.4027 137.527 22.264 136.93 22.264C136.396 22.264 135.895 22.4027 135.426 22.68C134.956 22.9573 134.551 23.3307 134.21 23.8C133.89 24.248 133.676 24.7813 133.57 25.4H140.226ZM147.828 19H151.54L151.828 20.632C152.34 20.056 152.958 19.608 153.684 19.288C154.43 18.9467 155.23 18.776 156.084 18.776C157.342 18.776 158.409 19.0427 159.284 19.576C160.18 20.1093 160.862 20.888 161.332 21.912C161.822 22.9147 162.068 24.1627 162.068 25.656V35H157.94V26.2C157.94 24.9627 157.694 24.0347 157.204 23.416C156.713 22.7973 155.977 22.488 154.996 22.488C153.993 22.488 153.225 22.808 152.692 23.448C152.18 24.0667 151.924 24.9947 151.924 26.232V35H147.828V19ZM166.917 19V14.52H171.077V19H174.597V22.616H171.077V29.112C171.077 29.944 171.248 30.5307 171.589 30.872C171.952 31.2133 172.4 31.3947 172.933 31.416C173.488 31.4373 174.043 31.4053 174.597 31.32V34.84C173.616 35.0533 172.656 35.1173 171.717 35.032C170.8 34.9467 169.979 34.7013 169.253 34.296C168.528 33.8693 167.952 33.2293 167.525 32.376C167.12 31.5227 166.917 30.4347 166.917 29.112V22.616H164.645V19H166.917ZM178.059 19H182.155V35H178.059V19ZM180.139 16.952C179.371 16.952 178.742 16.7173 178.251 16.248C177.761 15.7573 177.515 15.16 177.515 14.456C177.515 13.752 177.761 13.1653 178.251 12.696C178.742 12.2053 179.371 11.96 180.139 11.96C180.865 11.96 181.473 12.2053 181.963 12.696C182.475 13.1653 182.731 13.752 182.731 14.456C182.731 15.16 182.475 15.7573 181.963 16.248C181.473 16.7173 180.865 16.952 180.139 16.952ZM193.904 35.224C192.347 35.224 190.96 34.8933 189.744 34.232C188.528 33.5493 187.568 32.6 186.864 31.384C186.182 30.1467 185.84 28.696 185.84 27.032C185.84 25.3467 186.192 23.8853 186.896 22.648C187.622 21.4107 188.603 20.4613 189.84 19.8C191.078 19.1173 192.464 18.776 194 18.776C195.536 18.776 196.923 19.1173 198.16 19.8C199.398 20.4613 200.379 21.4107 201.104 22.648C201.83 23.864 202.192 25.304 202.192 26.968C202.192 28.6533 201.819 30.1147 201.072 31.352C200.347 32.5893 199.355 33.5493 198.096 34.232C196.859 34.8933 195.462 35.224 193.904 35.224ZM193.872 31.544C194.534 31.544 195.163 31.384 195.76 31.064C196.358 30.7227 196.848 30.2213 197.232 29.56C197.616 28.8773 197.808 28.0133 197.808 26.968C197.808 25.9653 197.627 25.1333 197.264 24.472C196.902 23.7893 196.422 23.288 195.824 22.968C195.248 22.6267 194.619 22.456 193.936 22.456C193.275 22.456 192.656 22.6267 192.08 22.968C191.526 23.288 191.078 23.7893 190.736 24.472C190.416 25.1333 190.256 25.9867 190.256 27.032C190.256 28.0347 190.416 28.8773 190.736 29.56C191.056 30.2213 191.494 30.7227 192.048 31.064C192.603 31.384 193.211 31.544 193.872 31.544ZM205.328 19H209.04L209.328 20.632C209.84 20.056 210.458 19.608 211.184 19.288C211.93 18.9467 212.73 18.776 213.584 18.776C214.842 18.776 215.909 19.0427 216.784 19.576C217.68 20.1093 218.362 20.888 218.832 21.912C219.322 22.9147 219.568 24.1627 219.568 25.656V35H215.44V26.2C215.44 24.9627 215.194 24.0347 214.704 23.416C214.213 22.7973 213.477 22.488 212.496 22.488C211.493 22.488 210.725 22.808 210.192 23.448C209.68 24.0667 209.424 24.9947 209.424 26.232V35H205.328V19ZM230.529 35.224C228.929 35.224 227.521 34.872 226.305 34.168C225.089 33.464 224.14 32.4827 223.457 31.224C222.796 29.9653 222.465 28.5147 222.465 26.872C222.465 25.2933 222.796 23.896 223.457 22.68C224.119 21.464 225.036 20.5147 226.209 19.832C227.404 19.128 228.759 18.776 230.273 18.776C231.809 18.776 233.164 19.1067 234.337 19.768C235.511 20.4293 236.417 21.3573 237.057 22.552C237.719 23.7253 238.049 25.1013 238.049 26.68C238.049 26.9147 238.028 27.1813 237.985 27.48C237.964 27.7573 237.932 28.056 237.889 28.376H226.881C226.967 29.0587 227.18 29.6453 227.521 30.136C227.884 30.6053 228.321 30.9787 228.833 31.256C229.367 31.512 229.964 31.64 230.625 31.64C231.415 31.64 232.119 31.48 232.737 31.16C233.377 30.8187 233.836 30.3813 234.113 29.848L237.761 30.936C237.121 32.3013 236.161 33.3573 234.881 34.104C233.623 34.8507 232.172 35.224 230.529 35.224ZM233.569 25.4C233.548 24.8027 233.388 24.2693 233.089 23.8C232.791 23.3093 232.396 22.936 231.905 22.68C231.415 22.4027 230.871 22.264 230.273 22.264C229.74 22.264 229.239 22.4027 228.769 22.68C228.3 22.9573 227.895 23.3307 227.553 23.8C227.233 24.248 227.02 24.7813 226.913 25.4H233.569ZM241.172 19H244.884L245.172 21.048C245.62 20.4933 246.121 20.0453 246.676 19.704C247.252 19.3413 247.881 19.096 248.564 18.968C249.246 18.8187 249.961 18.8293 250.708 19V22.84C250.132 22.648 249.524 22.5947 248.884 22.68C248.265 22.7653 247.678 22.9893 247.124 23.352C246.59 23.7147 246.142 24.2373 245.78 24.92C245.438 25.5813 245.268 26.424 245.268 27.448V35H241.172V19ZM254.864 35.128C254.458 35.128 254.117 34.9893 253.84 34.712C253.584 34.4347 253.456 34.0933 253.456 33.688C253.456 33.2827 253.584 32.9413 253.84 32.664C254.117 32.3867 254.458 32.248 254.864 32.248C255.248 32.248 255.578 32.3867 255.856 32.664C256.133 32.9413 256.272 33.2827 256.272 33.688C256.272 34.0933 256.133 34.4347 255.856 34.712C255.578 34.9893 255.248 35.128 254.864 35.128ZM261.383 19H263.175V35H261.383V19ZM262.311 15.416C261.906 15.416 261.575 15.288 261.319 15.032C261.063 14.776 260.935 14.456 260.935 14.072C260.935 13.6667 261.063 13.336 261.319 13.08C261.575 12.824 261.906 12.696 262.311 12.696C262.674 12.696 262.983 12.824 263.239 13.08C263.516 13.336 263.655 13.6667 263.655 14.072C263.655 14.456 263.516 14.776 263.239 15.032C262.983 15.288 262.674 15.416 262.311 15.416ZM275.532 35.224C274.038 35.224 272.694 34.8933 271.5 34.232C270.326 33.5707 269.398 32.632 268.716 31.416C268.054 30.1787 267.724 28.7173 267.724 27.032C267.724 25.3253 268.065 23.8533 268.748 22.616C269.43 21.3787 270.358 20.4293 271.532 19.768C272.726 19.1067 274.081 18.776 275.595 18.776C277.089 18.776 278.422 19.1067 279.596 19.768C280.79 20.4293 281.729 21.3787 282.412 22.616C283.094 23.832 283.436 25.2827 283.436 26.968C283.436 28.6747 283.084 30.1467 282.38 31.384C281.697 32.6213 280.758 33.5707 279.564 34.232C278.39 34.8933 277.046 35.224 275.532 35.224ZM275.532 33.496C276.556 33.496 277.516 33.272 278.412 32.824C279.329 32.3547 280.065 31.64 280.62 30.68C281.196 29.72 281.484 28.4933 281.484 27C281.484 25.5067 281.196 24.28 280.62 23.32C280.065 22.36 279.34 21.656 278.444 21.208C277.548 20.7387 276.588 20.504 275.564 20.504C274.54 20.504 273.58 20.7387 272.684 21.208C271.788 21.656 271.062 22.36 270.508 23.32C269.953 24.28 269.676 25.5067 269.676 27C269.676 28.4933 269.953 29.72 270.508 30.68C271.062 31.64 271.777 32.3547 272.652 32.824C273.548 33.272 274.508 33.496 275.532 33.496Z" fill="black"/>
</svg>
